<?xml version="1.0" encoding="UTF-8"?>
<svg xmlns="http://www.w3.org/2000/svg" viewBox="0 0 320 200" width="640" height="400">
  <defs>
    <linearGradient id="bg6" x1="0%" y1="0%" x2="100%" y2="100%">
      <stop offset="0%" stop-color="#FFF7ED"/>
      <stop offset="100%" stop-color="#FFFBEB"/>
    </linearGradient>
    <linearGradient id="accent6" x1="0%" y1="0%" x2="100%" y2="0%">
      <stop offset="0%" stop-color="#0891B2" stop-opacity="0.8"/>
      <stop offset="100%" stop-color="#22D3EE" stop-opacity="0.4"/>
    </linearGradient>
    <radialGradient id="glow6" cx="50%" cy="50%" r="50%">
      <stop offset="0%" stop-color="#0891B2" stop-opacity="0.08"/>
      <stop offset="100%" stop-color="#0891B2" stop-opacity="0"/>
    </radialGradient>
  </defs>
  
  <!-- Background -->
  <rect width="320" height="200" rx="12" fill="url(#bg6)"/>
  
  <!-- Subtle grid pattern -->
  <line x1="0" y1="50" x2="320" y2="50" stroke="#0891B2" stroke-width="0.3" opacity="0.1"/>
  <line x1="0" y1="100" x2="320" y2="100" stroke="#0891B2" stroke-width="0.3" opacity="0.1"/>
  <line x1="0" y1="150" x2="320" y2="150" stroke="#0891B2" stroke-width="0.3" opacity="0.1"/>
  <line x1="80" y1="0" x2="80" y2="200" stroke="#0891B2" stroke-width="0.3" opacity="0.1"/>
  <line x1="160" y1="0" x2="160" y2="200" stroke="#0891B2" stroke-width="0.3" opacity="0.1"/>
  <line x1="240" y1="0" x2="240" y2="200" stroke="#0891B2" stroke-width="0.3" opacity="0.1"/>
  
  <!-- Glow behind icon -->
  <circle cx="160" cy="120" r="60" fill="url(#glow6)"/>
  
  <!-- Decorative dots -->
  <circle cx="30" cy="30" r="2" fill="#0891B2" opacity="0.15"/>
  <circle cx="290" cy="30" r="2" fill="#0891B2" opacity="0.15"/>
  <circle cx="30" cy="170" r="2" fill="#0891B2" opacity="0.15"/>
  <circle cx="290" cy="170" r="2" fill="#0891B2" opacity="0.15"/>
  <circle cx="50" cy="60" r="1.5" fill="#22D3EE" opacity="0.2"/>
  <circle cx="270" cy="60" r="1.5" fill="#22D3EE" opacity="0.2"/>
  <circle cx="50" cy="140" r="1.5" fill="#22D3EE" opacity="0.2"/>
  <circle cx="270" cy="140" r="1.5" fill="#22D3EE" opacity="0.2"/>
  
  <!-- Icon area -->
  
    <rect x="140" y="70" width="40" height="100" rx="8" fill="none" stroke="#0891B2" stroke-width="2.5"/>
    <rect x="145" y="75" width="30" height="30" rx="4" fill="#0891B2" opacity="0.1"/>
    <rect x="145" y="110" width="30" height="30" rx="4" fill="#0891B2" opacity="0.15"/>
    <rect x="145" y="145" width="30" height="20" rx="4" fill="#0891B2" opacity="0.08"/>
    <line x1="148" y1="82" x2="172" y2="82" stroke="#22D3EE" stroke-width="1" opacity="0.4"/>
    <line x1="148" y1="90" x2="172" y2="90" stroke="#22D3EE" stroke-width="1" opacity="0.4"/>
    <line x1="148" y1="118" x2="172" y2="118" stroke="#22D3EE" stroke-width="1" opacity="0.3"/>
    <line x1="148" y1="125" x2="172" y2="125" stroke="#22D3EE" stroke-width="1" opacity="0.3"/>
    <line x1="148" y1="132" x2="172" y2="132" stroke="#22D3EE" stroke-width="1" opacity="0.3"/>
    <path d="M105,100 L115,90 L120,105 L125,88 L130,100" fill="none" stroke="#F59E0B" stroke-width="1.5" opacity="0.4"/>
    <text x="105" y="115" font-size="8" fill="#F59E0B" opacity="0.5" font-family="sans-serif">▼</text>
    <circle cx="100" cy="150" r="6" fill="none" stroke="#22D3EE" stroke-width="1.5" opacity="0.3"/>
    <circle cx="220" cy="90" r="8" fill="none" stroke="#22D3EE" stroke-width="1.5" opacity="0.3"/>
    
  
  <!-- Top accent bar -->
  <rect x="0" y="0" width="320" height="4" rx="0" fill="url(#accent6)"/>
  
  <!-- Chapter number -->
  <rect x="15" y="15" width="40" height="20" rx="10" fill="#0891B2" opacity="0.15"/>
  <text x="35" y="29" text-anchor="middle" font-size="10" fill="#0891B2" font-family="system-ui, sans-serif" font-weight="600" opacity="0.8">Ch 6</text>
  
  <!-- Title -->
  <text x="160" y="50" text-anchor="middle" font-size="16" fill="#1E293B" font-family="system-ui, sans-serif" font-weight="700">Osteoporosis</text>
  
  <!-- Subtitle -->
  <text x="160" y="188" text-anchor="middle" font-size="10" fill="#065F73" font-family="system-ui, sans-serif" font-weight="400" opacity="0.6">Bone Health</text>
  
  <!-- Bottom accent line -->
  <rect x="100" y="175" width="120" height="2" rx="1" fill="#0891B2" opacity="0.2"/>
  
  <!-- Border -->
  <rect width="320" height="200" rx="12" fill="none" stroke="#0891B2" stroke-width="1" opacity="0.15"/>
</svg>